<?xml version="1.0" encoding="UTF-8"?>
<svg width="568px" height="216px" viewBox="0 0 568 216" version="1.1" xmlns="http://www.w3.org/2000/svg" xmlns:xlink="http://www.w3.org/1999/xlink">
    <!-- Generator: Sketch 53.2 (72643) - https://sketchapp.com -->
    <title>logo iteris</title>
    <desc>Created with Sketch.</desc>
    <defs>
        <radialGradient cx="43.6045842%" cy="106.509279%" fx="43.6045842%" fy="106.509279%" r="82.2520947%" gradientTransform="translate(0.436046,1.065093),scale(1.000000,0.810253),rotate(-122.014470),translate(-0.436046,-1.065093)" id="radialGradient-1">
            <stop stop-color="#FFC291" offset="0%"></stop>
            <stop stop-color="#FF7200" offset="100%"></stop>
        </radialGradient>
        <radialGradient cx="41.0239939%" cy="7.8807095%" fx="41.0239939%" fy="7.8807095%" r="116.848788%" gradientTransform="translate(0.410240,0.078807),scale(1.000000,0.810253),rotate(57.753733),translate(-0.410240,-0.078807)" id="radialGradient-2">
            <stop stop-color="#7C7C80" offset="0%"></stop>
            <stop stop-color="#C0C0C0" offset="100%"></stop>
        </radialGradient>
    </defs>
    <g id="logo-iteris" stroke="none" stroke-width="1" fill="none" fill-rule="evenodd">
        <path d="M223.450567,197.224066 C224.389615,197.224066 225.21127,197.192946 225.915556,197.130705 C226.619842,197.068464 227.219094,196.987552 227.71333,196.887967 L227.71333,190.091286 C227.4415,189.966804 227.00905,189.8361 226.415967,189.69917 C225.822884,189.56224 225.007408,189.493776 223.969512,189.493776 C223.37643,189.493776 222.758644,189.537344 222.116137,189.624481 C221.473631,189.711619 220.880557,189.898339 220.336897,190.184647 C219.793238,190.470956 219.348433,190.863068 219.002467,191.360996 C218.656502,191.858924 218.483522,192.518668 218.483522,193.340249 C218.483522,194.062244 218.600902,194.672197 218.835664,195.170124 C219.070426,195.668052 219.40403,196.066389 219.836486,196.365145 C220.268943,196.663902 220.787882,196.881742 221.393321,197.018672 C221.99876,197.155602 222.684502,197.224066 223.450567,197.224066 Z M223.228162,179.224066 C224.488464,179.224066 225.557233,179.404563 226.434501,179.76556 C227.31177,180.126558 228.022223,180.624478 228.565882,181.259336 C229.109542,181.894194 229.504925,182.647299 229.752042,183.518672 C229.99916,184.390046 230.122717,185.336094 230.122717,186.356846 L230.122717,198.53112 C229.8756,198.60581 229.517284,198.686722 229.04776,198.773859 C228.578236,198.860996 228.034585,198.954356 227.41679,199.053942 C226.798995,199.153527 226.113253,199.23444 225.359544,199.29668 C224.605834,199.358921 223.833602,199.390041 223.042825,199.390041 C222.029642,199.390041 221.096785,199.278009 220.244229,199.053942 C219.391672,198.829874 218.650329,198.475106 218.020179,197.989627 C217.390028,197.504147 216.8958,196.881747 216.537479,196.122407 C216.179158,195.363067 216,194.43569 216,193.340249 C216,192.294601 216.197691,191.398344 216.59308,190.651452 C216.988469,189.904561 217.544476,189.288384 218.261117,188.802905 C218.977759,188.317425 219.830303,187.962657 220.818775,187.738589 C221.807247,187.514522 222.882193,187.40249 224.043647,187.40249 C224.389613,187.40249 224.754106,187.421162 225.137139,187.458506 C225.520171,187.495851 225.890843,187.545643 226.249164,187.607884 C226.607485,187.670125 226.916377,187.732365 227.175851,187.794606 C227.435325,187.856847 227.614483,187.912863 227.71333,187.962656 L227.71333,186.767635 C227.71333,186.095432 227.663907,185.441912 227.56506,184.807054 C227.466213,184.172196 227.249988,183.599588 226.916379,183.089212 C226.58277,182.578836 226.113253,182.168051 225.507814,181.856846 C224.902375,181.545642 224.105432,181.390041 223.11696,181.390041 C221.708388,181.390041 220.658153,181.489626 219.966222,181.688797 C219.274292,181.887968 218.767708,182.049792 218.446455,182.174274 L218.112847,180.045643 C218.532948,179.846472 219.181623,179.659752 220.058891,179.485477 C220.93616,179.311202 221.992573,179.224066 223.228162,179.224066 Z M249.583155,197.261411 C250.967015,197.261411 252.109919,197.031123 253.011899,196.570539 C253.913879,196.109956 254.364863,195.331956 254.364863,194.236515 C254.364863,193.71369 254.284551,193.265562 254.123924,192.892116 C253.963297,192.51867 253.69765,192.182574 253.326973,191.883817 C252.956296,191.585061 252.468245,191.298757 251.862806,191.024896 C251.257368,190.751036 250.509847,190.427388 249.620223,190.053942 C248.903581,189.755185 248.224017,189.450209 247.58151,189.139004 C246.939004,188.827799 246.370641,188.466807 245.876405,188.056017 C245.382169,187.645226 244.986787,187.15353 244.690245,186.580913 C244.393704,186.008296 244.245435,185.311207 244.245435,184.489627 C244.245435,182.921154 244.832331,181.651457 246.006141,180.680498 C247.179951,179.709539 248.792372,179.224066 250.84345,179.224066 C252.153175,179.224066 253.2343,179.336098 254.086856,179.560166 C254.939413,179.784233 255.538665,179.983402 255.88463,180.157676 L255.328618,182.323651 C255.032076,182.174273 254.53167,181.975105 253.827384,181.726141 C253.123098,181.477177 252.091396,181.352697 250.732248,181.352697 C250.188588,181.352697 249.675826,181.408713 249.193946,181.520747 C248.712067,181.632781 248.285795,181.807053 247.915118,182.043568 C247.544441,182.280084 247.247904,182.578836 247.025498,182.939834 C246.803092,183.300832 246.69189,183.742736 246.69189,184.26556 C246.69189,184.788384 246.790736,185.236513 246.98843,185.609959 C247.186125,185.983404 247.476484,186.313277 247.859516,186.599585 C248.242549,186.885894 248.712066,187.153526 249.268081,187.40249 C249.824097,187.651454 250.460416,187.92531 251.177058,188.224066 C251.918411,188.522823 252.628865,188.827799 253.308439,189.139004 C253.988013,189.450209 254.587265,189.823649 255.106213,190.259336 C255.62516,190.695023 256.045254,191.217839 256.366508,191.827801 C256.687761,192.437762 256.848385,193.203315 256.848385,194.124481 C256.848385,195.867229 256.19971,197.186718 254.902341,198.082988 C253.604972,198.979258 251.831928,199.427386 249.583155,199.427386 C247.902753,199.427386 246.61776,199.284234 245.728135,198.997925 C244.838511,198.711617 244.245437,198.493777 243.948895,198.344398 L244.579043,196.141079 C244.653178,196.190872 244.813802,196.271784 245.06092,196.383817 C245.308038,196.495851 245.641642,196.620331 246.061743,196.757261 C246.481843,196.894192 246.982249,197.012448 247.562976,197.112033 C248.143703,197.211619 248.81709,197.261411 249.583155,197.261411 Z M278.329001,189.344398 C278.329001,190.863078 278.112777,192.244807 277.68032,193.489627 C277.247864,194.734446 276.642434,195.792527 275.864013,196.6639 C275.085591,197.535274 274.165091,198.213691 273.102484,198.69917 C272.039877,199.18465 270.866085,199.427386 269.581071,199.427386 C268.296058,199.427386 267.122266,199.18465 266.059659,198.69917 C264.997052,198.213691 264.076552,197.535274 263.29813,196.6639 C262.519709,195.792527 261.914279,194.734446 261.481823,193.489627 C261.049366,192.244807 260.833142,190.863078 260.833142,189.344398 C260.833142,187.825719 261.049366,186.44399 261.481823,185.19917 C261.914279,183.954351 262.519709,182.890046 263.29813,182.006224 C264.076552,181.122402 264.997052,180.437762 266.059659,179.952282 C267.122266,179.466803 268.296058,179.224066 269.581071,179.224066 C270.866085,179.224066 272.039877,179.466803 273.102484,179.952282 C274.165091,180.437762 275.085591,181.122402 275.864013,182.006224 C276.642434,182.890046 277.247864,183.954351 277.68032,185.19917 C278.112777,186.44399 278.329001,187.825719 278.329001,189.344398 Z M275.771344,189.344398 C275.771344,186.929449 275.215337,185.006231 274.103306,183.574689 C272.991276,182.143146 271.483879,181.427386 269.581071,181.427386 C267.678264,181.427386 266.170867,182.143146 265.058837,183.574689 C263.946806,185.006231 263.390799,186.929449 263.390799,189.344398 C263.390799,191.759348 263.946806,193.676341 265.058837,195.095436 C266.170867,196.51453 267.678264,197.224066 269.581071,197.224066 C271.483879,197.224066 272.991276,196.51453 274.103306,195.095436 C275.215337,193.676341 275.771344,191.759348 275.771344,189.344398 Z M291.061688,170 C292.099583,170 292.945949,170.080912 293.600812,170.242739 C294.255674,170.404565 294.681946,170.547717 294.87964,170.672199 L294.397763,172.763485 C294.125933,172.639004 293.724373,172.508299 293.193069,172.371369 C292.661766,172.234439 291.988379,172.165975 291.17289,172.165975 C289.467777,172.165975 288.250739,172.601655 287.521742,173.473029 C286.792744,174.344403 286.42825,175.73858 286.42825,177.655602 L286.42825,179.672199 L294.13829,179.672199 L294.13829,181.726141 L286.42825,181.726141 L286.42825,198.979253 L284.018863,198.979253 L284.018863,177.580913 C284.018863,175.066377 284.593403,173.17428 285.742502,171.904564 C286.8916,170.634848 288.664644,170 291.061688,170 Z M300.680704,179.672199 L308.316609,179.672199 L308.316609,181.726141 L300.680704,181.726141 L300.680704,191.995851 C300.680704,193.091292 300.773372,193.981324 300.95871,194.665975 C301.144049,195.350626 301.409697,195.879666 301.755662,196.253112 C302.101627,196.626558 302.521721,196.875518 303.015957,197 C303.510192,197.124482 304.053844,197.186722 304.646927,197.186722 C305.66011,197.186722 306.475587,197.068466 307.093382,196.83195 C307.711176,196.595435 308.193049,196.377594 308.539014,196.178423 L309.132094,198.195021 C308.786129,198.419088 308.180699,198.674272 307.315787,198.960581 C306.450874,199.246889 305.51184,199.390041 304.498657,199.390041 C303.312491,199.390041 302.317856,199.234441 301.514723,198.923237 C300.71159,198.612032 300.069093,198.139007 299.587213,197.504149 C299.105333,196.869291 298.765551,196.078843 298.567857,195.13278 C298.370162,194.186717 298.271317,193.066397 298.271317,191.771784 L298.271317,173.995851 L300.680704,173.547718 L300.680704,179.672199 Z M325.57153,179.672199 C325.793937,180.917019 326.084296,182.242732 326.442617,183.649378 C326.800938,185.056024 327.19632,186.487545 327.628777,187.943983 C328.061233,189.400422 328.518394,190.838167 329.000274,192.257261 C329.482154,193.676356 329.970205,195.008293 330.46444,196.253112 C330.884541,195.307049 331.329346,194.155608 331.79887,192.798755 C332.268394,191.441902 332.737911,190.010381 333.207435,188.504149 C333.676959,186.997918 334.115587,185.479261 334.523332,183.948133 C334.931076,182.417005 335.270858,180.991708 335.542688,179.672199 L337.915008,179.672199 C337.025383,183.45645 336.05546,186.916997 335.005209,190.053942 C333.954958,193.190887 332.799699,196.165961 331.539398,198.979253 L329.27828,198.979253 C328.907604,198.107879 328.518399,197.130711 328.110654,196.047718 C327.70291,194.964725 327.282816,193.80706 326.850359,192.574689 C326.417903,191.342317 325.997809,190.047725 325.590064,188.690871 C325.18232,187.334018 324.793115,185.946065 324.422438,184.526971 C324.051761,185.946065 323.662556,187.334018 323.254812,188.690871 C322.847067,190.047725 322.426973,191.342317 321.994517,192.574689 C321.56206,193.80706 321.141966,194.964725 320.734222,196.047718 C320.326477,197.130711 319.937272,198.107879 319.566596,198.979253 L317.268411,198.979253 C316.008109,196.165961 314.85285,193.190887 313.802599,190.053942 C312.752348,186.916997 311.782425,183.45645 310.892801,179.672199 L313.450458,179.672199 C313.722288,180.991708 314.06207,182.417005 314.469814,183.948133 C314.877559,185.479261 315.316187,186.997918 315.785711,188.504149 C316.255235,190.010381 316.730929,191.435678 317.212809,192.780083 C317.694689,194.124488 318.145673,195.269705 318.565773,196.215768 C319.035297,194.970948 319.510992,193.639011 319.992872,192.219917 C320.474752,190.800823 320.925735,189.369302 321.345835,187.925311 C321.765936,186.481321 322.161319,185.056024 322.531995,183.649378 C322.902672,182.242732 323.223921,180.917019 323.49575,179.672199 L325.57153,179.672199 Z M348.460712,197.224066 C349.39976,197.224066 350.221415,197.192946 350.925701,197.130705 C351.629987,197.068464 352.229238,196.987552 352.723474,196.887967 L352.723474,190.091286 C352.451645,189.966804 352.019195,189.8361 351.426112,189.69917 C350.833029,189.56224 350.017552,189.493776 348.979657,189.493776 C348.386574,189.493776 347.768788,189.537344 347.126282,189.624481 C346.483775,189.711619 345.890701,189.898339 345.347042,190.184647 C344.803382,190.470956 344.358577,190.863068 344.012612,191.360996 C343.666647,191.858924 343.493667,192.518668 343.493667,193.340249 C343.493667,194.062244 343.611046,194.672197 343.845808,195.170124 C344.08057,195.668052 344.414174,196.066389 344.846631,196.365145 C345.279087,196.663902 345.798027,196.881742 346.403466,197.018672 C347.008904,197.155602 347.694646,197.224066 348.460712,197.224066 Z M348.238307,179.224066 C349.498608,179.224066 350.567377,179.404563 351.444646,179.76556 C352.321914,180.126558 353.032367,180.624478 353.576027,181.259336 C354.119686,181.894194 354.515069,182.647299 354.762187,183.518672 C355.009305,184.390046 355.132862,185.336094 355.132862,186.356846 L355.132862,198.53112 C354.885744,198.60581 354.527428,198.686722 354.057904,198.773859 C353.58838,198.860996 353.044729,198.954356 352.426934,199.053942 C351.80914,199.153527 351.123398,199.23444 350.369688,199.29668 C349.615978,199.358921 348.843747,199.390041 348.052969,199.390041 C347.039786,199.390041 346.10693,199.278009 345.254373,199.053942 C344.401816,198.829874 343.660474,198.475106 343.030323,197.989627 C342.400172,197.504147 341.905944,196.881747 341.547623,196.122407 C341.189302,195.363067 341.010144,194.43569 341.010144,193.340249 C341.010144,192.294601 341.207836,191.398344 341.603224,190.651452 C341.998613,189.904561 342.55462,189.288384 343.271262,188.802905 C343.987904,188.317425 344.840448,187.962657 345.828919,187.738589 C346.817391,187.514522 347.892338,187.40249 349.053792,187.40249 C349.399757,187.40249 349.76425,187.421162 350.147283,187.458506 C350.530316,187.495851 350.900987,187.545643 351.259308,187.607884 C351.617629,187.670125 351.926522,187.732365 352.185996,187.794606 C352.445469,187.856847 352.624627,187.912863 352.723474,187.962656 L352.723474,186.767635 C352.723474,186.095432 352.674051,185.441912 352.575204,184.807054 C352.476357,184.172196 352.260132,183.599588 351.926523,183.089212 C351.592914,182.578836 351.123397,182.168051 350.517958,181.856846 C349.912519,181.545642 349.115576,181.390041 348.127104,181.390041 C346.718532,181.390041 345.668297,181.489626 344.976367,181.688797 C344.284437,181.887968 343.777853,182.049792 343.456599,182.174274 L343.122992,180.045643 C343.543092,179.846472 344.191767,179.659752 345.069036,179.485477 C345.946304,179.311202 347.002717,179.224066 348.238307,179.224066 Z M368.273291,179.298755 C369.064068,179.298755 369.811588,179.360995 370.515874,179.485477 C371.22016,179.609959 371.708211,179.734439 371.980041,179.858921 L371.498163,181.950207 C371.300469,181.850622 370.898908,181.744814 370.293469,181.63278 C369.68803,181.520746 368.891087,181.46473 367.902616,181.46473 C366.86472,181.46473 366.03071,181.539418 365.400559,181.688797 C364.770409,181.838175 364.356492,181.962655 364.158798,182.062241 L364.158798,198.979253 L361.749411,198.979253 L361.749411,180.568465 C362.367205,180.294604 363.219749,180.014524 364.307068,179.728216 C365.394387,179.441907 366.716448,179.298755 368.273291,179.298755 Z M374.926907,189.307054 C374.926907,187.614099 375.167843,186.13901 375.649723,184.881743 C376.131603,183.624475 376.761744,182.572618 377.540166,181.726141 C378.318587,180.879664 379.208198,180.251039 380.209026,179.840249 C381.209853,179.429459 382.241555,179.224066 383.304162,179.224066 C385.651782,179.224066 387.523672,179.995843 388.919888,181.539419 C390.316104,183.082995 391.014202,185.460565 391.014202,188.672199 C391.014202,188.87137 391.008024,189.070538 390.995668,189.26971 C390.983312,189.468881 390.964779,189.655601 390.940067,189.829876 L377.484564,189.829876 C377.5587,192.195033 378.139418,194.012442 379.226737,195.282158 C380.314056,196.551874 382.043855,197.186722 384.416187,197.186722 C385.725912,197.186722 386.763791,197.062242 387.529857,196.813278 C388.295922,196.564314 388.851929,196.352698 389.197894,196.178423 L389.642704,198.26971 C389.296739,198.468881 388.648065,198.705393 387.696661,198.979253 C386.745257,199.253113 385.627065,199.390041 384.342052,199.390041 C382.66165,199.390041 381.228388,199.141081 380.042222,198.643154 C378.856056,198.145226 377.879955,197.448137 377.113889,196.551867 C376.347824,195.655597 375.791817,194.591292 375.445852,193.358921 C375.099887,192.12655 374.926907,190.775941 374.926907,189.307054 Z M388.530679,187.775934 C388.481256,185.759326 388.011739,184.190877 387.122114,183.070539 C386.23249,181.950202 384.972208,181.390041 383.341229,181.390041 C382.476317,181.390041 381.704085,181.564314 381.024511,181.912863 C380.344936,182.261413 379.751862,182.728213 379.245271,183.313278 C378.738679,183.898343 378.343296,184.57676 378.059111,185.348548 C377.774925,186.120336 377.608123,186.929456 377.558699,187.775934 L388.530679,187.775934 Z M413.699512,199.390041 C412.216805,199.390041 410.9071,199.153529 409.770357,198.680498 C408.633615,198.207467 407.688403,197.52905 406.934693,196.645228 C406.180984,195.761406 405.606443,194.703326 405.211055,193.470954 C404.815666,192.238583 404.617975,190.875526 404.617975,189.381743 C404.617975,187.863063 404.821844,186.481334 405.229588,185.236515 C405.637333,183.991695 406.224229,182.921166 406.990295,182.024896 C407.75636,181.128626 408.683038,180.437762 409.770357,179.952282 C410.857676,179.466803 412.080891,179.224066 413.44004,179.224066 C414.477935,179.224066 415.447858,179.311202 416.349838,179.485477 C417.251819,179.659752 417.949916,179.883816 418.444152,180.157676 L417.814005,182.248963 C417.319769,181.999999 416.763762,181.800831 416.145967,181.651452 C415.528172,181.502074 414.70034,181.427386 413.662445,181.427386 C411.537231,181.427386 409.924811,182.11825 408.825136,183.5 C407.725461,184.88175 407.175632,186.842311 407.175632,189.381743 C407.175632,190.526977 407.299189,191.578833 407.546307,192.537344 C407.793425,193.495855 408.194986,194.317424 408.751001,195.002075 C409.307016,195.686725 410.023647,196.22199 410.900916,196.607884 C411.778184,196.993778 412.846953,197.186722 414.107255,197.186722 C415.14515,197.186722 416.016227,197.068466 416.720513,196.83195 C417.424799,196.595435 417.937561,196.390042 418.258815,196.215768 L418.77776,198.307054 C418.332947,198.556018 417.63485,198.798754 416.683446,199.03527 C415.732042,199.271785 414.737407,199.390041 413.699512,199.390041 Z M439.628228,189.344398 C439.628228,190.863078 439.412004,192.244807 438.979547,193.489627 C438.547091,194.734446 437.941661,195.792527 437.16324,196.6639 C436.384818,197.535274 435.464318,198.213691 434.401711,198.69917 C433.339104,199.18465 432.165312,199.427386 430.880298,199.427386 C429.595285,199.427386 428.421493,199.18465 427.358886,198.69917 C426.296279,198.213691 425.375779,197.535274 424.597357,196.6639 C423.818936,195.792527 423.213506,194.734446 422.78105,193.489627 C422.348593,192.244807 422.132369,190.863078 422.132369,189.344398 C422.132369,187.825719 422.348593,186.44399 422.78105,185.19917 C423.213506,183.954351 423.818936,182.890046 424.597357,182.006224 C425.375779,181.122402 426.296279,180.437762 427.358886,179.952282 C428.421493,179.466803 429.595285,179.224066 430.880298,179.224066 C432.165312,179.224066 433.339104,179.466803 434.401711,179.952282 C435.464318,180.437762 436.384818,181.122402 437.16324,182.006224 C437.941661,182.890046 438.547091,183.954351 438.979547,185.19917 C439.412004,186.44399 439.628228,187.825719 439.628228,189.344398 Z M437.070571,189.344398 C437.070571,186.929449 436.514564,185.006231 435.402533,183.574689 C434.290503,182.143146 432.783106,181.427386 430.880298,181.427386 C428.977491,181.427386 427.470094,182.143146 426.358063,183.574689 C425.246033,185.006231 424.690026,186.929449 424.690026,189.344398 C424.690026,191.759348 425.246033,193.676341 426.358063,195.095436 C427.470094,196.51453 428.977491,197.224066 430.880298,197.224066 C432.783106,197.224066 434.290503,196.51453 435.402533,195.095436 C436.514564,193.676341 437.070571,191.759348 437.070571,189.344398 Z M445.31809,180.344398 C446.034732,180.145227 446.967588,179.921163 448.116686,179.672199 C449.265784,179.423235 450.754647,179.298755 452.58332,179.298755 C455.005075,179.298755 456.759586,180.008292 457.846905,181.427386 C457.970464,181.3278 458.2114,181.159752 458.569721,180.923237 C458.928042,180.686721 459.379025,180.443985 459.922685,180.195021 C460.466344,179.946057 461.102663,179.734441 461.831661,179.560166 C462.560659,179.385891 463.369958,179.298755 464.259582,179.298755 C465.717578,179.298755 466.897548,179.516595 467.799528,179.952282 C468.701509,180.387969 469.399606,180.997921 469.893842,181.782158 C470.388078,182.566394 470.721682,183.506219 470.894665,184.60166 C471.067647,185.697101 471.154137,186.89211 471.154137,188.186722 L471.154137,198.979253 L468.74475,198.979253 L468.74475,188.970954 C468.74475,187.701238 468.689149,186.59959 468.577946,185.665975 C468.466743,184.73236 468.24434,183.960584 467.910731,183.350622 C467.577122,182.740661 467.101427,182.280085 466.483632,181.96888 C465.865837,181.657675 465.062716,181.502075 464.074245,181.502075 C463.332891,181.502075 462.659505,181.570539 462.054066,181.707469 C461.448627,181.844399 460.923509,182.012447 460.478697,182.211618 C460.033885,182.410789 459.669392,182.609958 459.385206,182.809129 C459.10102,183.0083 458.897151,183.157676 458.773592,183.257261 C458.995998,183.904568 459.1628,184.632776 459.274004,185.441909 C459.385207,186.251041 459.440807,187.10373 459.440807,188 L459.440807,198.979253 L457.03142,198.979253 L457.03142,188.970954 C457.03142,187.701238 456.975819,186.59959 456.864616,185.665975 C456.753413,184.73236 456.524832,183.960584 456.178867,183.350622 C455.832902,182.740661 455.344852,182.280085 454.714701,181.96888 C454.08455,181.657675 453.25054,181.502075 452.212645,181.502075 C451.051191,181.502075 450.068912,181.564315 449.265779,181.688797 C448.462645,181.813279 447.949883,181.925311 447.727477,182.024896 L447.727477,198.979253 L445.31809,198.979253 L445.31809,180.344398 Z M480.180074,195.506224 C480.40248,195.680499 480.680483,195.867219 481.014092,196.06639 C481.347701,196.265561 481.736906,196.452281 482.181719,196.626556 C482.626531,196.800831 483.108403,196.943983 483.627351,197.056017 C484.146299,197.16805 484.68995,197.224066 485.258321,197.224066 C486.444487,197.224066 487.439122,197.018674 488.242255,196.607884 C489.045388,196.197093 489.694063,195.636933 490.188299,194.927386 C490.682534,194.217839 491.04085,193.383822 491.263256,192.425311 C491.485662,191.4668 491.596864,190.452288 491.596864,189.381743 C491.596864,186.842311 490.966722,184.894198 489.706421,183.537344 C488.44612,182.180491 486.778099,181.502075 484.702309,181.502075 C483.516143,181.502075 482.558575,181.558091 481.829577,181.670124 C481.10058,181.782158 480.55075,181.900414 480.180074,182.024896 L480.180074,195.506224 Z M480.180074,205.887967 L477.770686,205.887967 L477.770686,180.344398 C478.487328,180.095434 479.401651,179.858922 480.513681,179.634855 C481.625712,179.410787 483.034263,179.298755 484.739376,179.298755 C486.147948,179.298755 487.426764,179.529043 488.575862,179.989627 C489.724961,180.45021 490.713417,181.116178 491.541262,181.987552 C492.369107,182.858926 493.011604,183.917006 493.468772,185.161826 C493.92594,186.406645 494.154521,187.81327 494.154521,189.381743 C494.154521,190.85063 493.963008,192.201239 493.579975,193.43361 C493.196942,194.665981 492.634757,195.724062 491.893404,196.607884 C491.15205,197.491706 490.243905,198.18257 489.168942,198.680498 C488.093979,199.178426 486.864586,199.427386 485.480726,199.427386 C484.220425,199.427386 483.126944,199.24689 482.200252,198.885892 C481.27356,198.524894 480.600174,198.182574 480.180074,197.858921 L480.180074,205.887967 Z M505.886385,197.224066 C506.825433,197.224066 507.647088,197.192946 508.351374,197.130705 C509.05566,197.068464 509.654912,196.987552 510.149147,196.887967 L510.149147,190.091286 C509.877318,189.966804 509.444868,189.8361 508.851785,189.69917 C508.258702,189.56224 507.443225,189.493776 506.40533,189.493776 C505.812247,189.493776 505.194461,189.537344 504.551955,189.624481 C503.909448,189.711619 503.316374,189.898339 502.772715,190.184647 C502.229056,190.470956 501.78425,190.863068 501.438285,191.360996 C501.09232,191.858924 500.91934,192.518668 500.91934,193.340249 C500.91934,194.062244 501.036719,194.672197 501.271481,195.170124 C501.506243,195.668052 501.839847,196.066389 502.272304,196.365145 C502.70476,196.663902 503.2237,196.881742 503.829139,197.018672 C504.434578,197.155602 505.120319,197.224066 505.886385,197.224066 Z M505.66398,179.224066 C506.924281,179.224066 507.99305,179.404563 508.870319,179.76556 C509.747587,180.126558 510.45804,180.624478 511.0017,181.259336 C511.545359,181.894194 511.940742,182.647299 512.18786,183.518672 C512.434978,184.390046 512.558535,185.336094 512.558535,186.356846 L512.558535,198.53112 C512.311417,198.60581 511.953101,198.686722 511.483577,198.773859 C511.014053,198.860996 510.470402,198.954356 509.852607,199.053942 C509.234813,199.153527 508.549071,199.23444 507.795361,199.29668 C507.041652,199.358921 506.26942,199.390041 505.478642,199.390041 C504.465459,199.390041 503.532603,199.278009 502.680046,199.053942 C501.827489,198.829874 501.086147,198.475106 500.455996,197.989627 C499.825846,197.504147 499.331617,196.881747 498.973296,196.122407 C498.614975,195.363067 498.435817,194.43569 498.435817,193.340249 C498.435817,192.294601 498.633509,191.398344 499.028897,190.651452 C499.424286,189.904561 499.980293,189.288384 500.696935,188.802905 C501.413577,188.317425 502.266121,187.962657 503.254592,187.738589 C504.243064,187.514522 505.318011,187.40249 506.479465,187.40249 C506.82543,187.40249 507.189923,187.421162 507.572956,187.458506 C507.955989,187.495851 508.32666,187.545643 508.684981,187.607884 C509.043302,187.670125 509.352195,187.732365 509.611669,187.794606 C509.871142,187.856847 510.0503,187.912863 510.149147,187.962656 L510.149147,186.767635 C510.149147,186.095432 510.099725,185.441912 510.000877,184.807054 C509.90203,184.172196 509.685805,183.599588 509.352196,183.089212 C509.018587,182.578836 508.54907,182.168051 507.943631,181.856846 C507.338192,181.545642 506.541249,181.390041 505.552777,181.390041 C504.144205,181.390041 503.09397,181.489626 502.40204,181.688797 C501.71011,181.887968 501.203526,182.049792 500.882272,182.174274 L500.548665,180.045643 C500.968765,179.846472 501.61744,179.659752 502.494709,179.485477 C503.371977,179.311202 504.42839,179.224066 505.66398,179.224066 Z M519.175084,180.344398 C519.891726,180.145227 520.855471,179.921163 522.066349,179.672199 C523.277226,179.423235 524.759912,179.298755 526.514449,179.298755 C527.972444,179.298755 529.189482,179.510371 530.165597,179.93361 C531.141713,180.356849 531.920123,180.960577 532.50085,181.744813 C533.081577,182.52905 533.495493,183.468874 533.742611,184.564315 C533.989729,185.659757 534.113286,186.867213 534.113286,188.186722 L534.113286,198.979253 L531.703899,198.979253 L531.703899,188.970954 C531.703899,187.601653 531.611231,186.443988 531.425892,185.497925 C531.240554,184.551862 530.931661,183.780086 530.499205,183.182573 C530.066749,182.585059 529.498386,182.155603 528.7941,181.894191 C528.089814,181.632779 527.206381,181.502075 526.143774,181.502075 C525.007031,181.502075 524.024752,181.564315 523.196907,181.688797 C522.369063,181.813279 521.831589,181.925311 521.584471,182.024896 L521.584471,198.979253 L519.175084,198.979253 L519.175084,180.344398 Z M545.69688,199.390041 C544.881391,197.871362 544.096803,196.290465 543.343094,194.647303 C542.589384,193.004141 541.885109,191.342332 541.230246,189.661826 C540.575384,187.981319 539.976132,186.300838 539.432473,184.620332 C538.888813,182.939826 538.419296,181.290465 538.023908,179.672199 L540.581565,179.672199 C540.853395,180.867226 541.199355,182.155595 541.619455,183.537344 C542.039555,184.919094 542.51525,186.344391 543.046554,187.813278 C543.577857,189.282165 544.164753,190.788374 544.80726,192.33195 C545.449767,193.875526 546.141686,195.394183 546.88304,196.887967 C547.426699,195.344391 547.908572,193.887974 548.328673,192.518672 C548.748773,191.149371 549.137978,189.786314 549.496299,188.429461 C549.85462,187.072607 550.20058,185.684654 550.534189,184.26556 C550.867798,182.846466 551.219936,181.315361 551.590613,179.672199 L554,179.672199 C553.209223,183.282176 552.307256,186.792514 551.294073,190.20332 C550.280889,193.614125 549.181231,196.738575 547.995065,199.576763 C547.525541,200.697101 547.043668,201.661822 546.549433,202.470954 C546.055197,203.280087 545.505368,203.946055 544.899929,204.46888 C544.29449,204.991704 543.590214,205.377592 542.787081,205.626556 C541.983948,205.87552 541.038736,206 539.951418,206 C539.333623,206 538.771438,205.925312 538.264846,205.775934 C537.758255,205.626555 537.443184,205.514523 537.319625,205.439834 L537.801503,203.423237 C537.90035,203.497926 538.178353,203.603734 538.635521,203.740664 C539.092689,203.877594 539.568384,203.946058 540.06262,203.946058 C540.75455,203.946058 541.378514,203.87137 541.934529,203.721992 C542.490544,203.572613 542.99095,203.317429 543.435763,202.956432 C543.880575,202.595434 544.282135,202.128634 544.640456,201.556017 C544.998777,200.9834 545.350915,200.261415 545.69688,199.390041 Z" id="a-software-company" fill="#7C7C80"></path>
        <path d="M222,53 C219.777767,53 217.888897,52.2786957 216.333333,50.8360656 C214.77777,49.3934354 214,47.4480997 214,45 C214,42.5519003 214.77777,40.6065646 216.333333,39.1639344 C217.888897,37.7213043 219.777767,37 222,37 C224.222233,37 226.111103,37.7213043 227.666667,39.1639344 C229.22223,40.6065646 230,42.5519003 230,45 C230,47.4480997 229.22223,49.3934354 227.666667,50.8360656 C226.111103,52.2786957 224.222233,53 222,53 Z" id="Path" fill="#FF7200"></path>
        <path d="M469,53 C466.777767,53 464.888897,52.2786957 463.333333,50.8360656 C461.77777,49.3934354 461,47.4480997 461,45 C461,42.5519003 461.77777,40.6065646 463.333333,39.1639344 C464.888897,37.7213043 466.777767,37 469,37 C471.222233,37 473.111103,37.7213043 474.666667,39.1639344 C476.22223,40.6065646 477,42.5519003 477,45 C477,47.4480997 476.22223,49.3934354 474.666667,50.8360656 C473.111103,52.2786957 471.222233,53 469,53 Z" id="Path" fill="#FF7200"></path>
        <polygon id="Path" fill="#7C7C80" points="229 154 216 154 216 72 229 72"></polygon>
        <path d="M268.7,71.8945087 L299.83871,71.8945087 L299.83871,83.9552023 L268.7,83.9552023 L268.7,121.065029 C268.7,125.08528 269.016126,128.409669 269.648387,131.038295 C270.280648,133.666921 271.229026,135.728557 272.493548,137.223266 C273.758071,138.717975 275.3387,139.774563 277.235484,140.393064 C279.132268,141.011564 281.345149,141.320809 283.874194,141.320809 C288.300022,141.320809 291.856438,140.831171 294.543548,139.851879 C297.230659,138.872587 299.10107,138.176784 300.154839,137.764451 L303,149.67052 C301.524724,150.392104 298.943029,151.29407 295.254839,152.376445 C291.566648,153.45882 287.351637,154 282.609677,154 C277.024703,154 272.414534,153.304198 268.779032,151.912572 C265.14353,150.520947 262.219366,148.43354 260.006452,145.650289 C257.793537,142.867038 256.239252,139.439568 255.343548,135.367775 C254.447845,131.295982 254,126.579988 254,121.219653 L254,49.4739884 L268.7,47 L268.7,71.8945087 Z" id="Path" fill="#7C7C80"></path>
        <path d="M313,112.231193 C313,105.141249 314.042574,98.9504852 316.127753,93.6587156 C318.212933,88.366946 320.975754,83.9743294 324.4163,80.4807339 C327.856845,76.9871385 331.818627,74.3669812 336.301762,72.6201835 C340.784898,70.8733858 345.372223,70 350.063877,70 C361.011068,70 369.403789,73.365104 375.242291,80.0954128 C381.080793,86.8257217 384,97.0751605 384,110.844037 L384,113.233028 C384,114.209179 383.947871,115.108253 383.843612,115.930275 L328.169604,115.930275 C328.795157,124.253253 331.245206,130.572455 335.519824,134.888073 C339.794441,139.203691 346.466915,141.361468 355.537445,141.361468 C360.646134,141.361468 364.946752,140.924775 368.439427,140.051376 C371.932103,139.177977 374.564602,138.330279 376.337004,137.508257 L378.370044,149.530275 C376.597642,150.45505 373.495984,151.431188 369.064978,152.458716 C364.633972,153.486244 359.603552,154 353.973568,154 C346.883959,154 340.758836,152.9468 335.598018,150.840367 C330.437199,148.733934 326.18871,145.831211 322.852423,142.13211 C319.516136,138.433009 317.040023,134.040392 315.424009,128.954128 C313.807995,123.867864 313,118.293608 313,112.231193 Z M368.830396,104.370642 C368.934655,97.8972153 367.292601,92.5798373 363.904185,88.4183486 C360.515769,84.2568599 355.85025,82.1761468 349.907489,82.1761468 C346.571202,82.1761468 343.625931,82.8183422 341.071586,84.1027523 C338.517241,85.3871624 336.3539,87.0568705 334.581498,89.1119266 C332.809095,91.1669828 331.427685,93.5302619 330.437225,96.2018349 C329.446765,98.8734079 328.795156,101.596316 328.482379,104.370642 L368.830396,104.370642 Z" id="Combined-Shape" fill="#7C7C80"></path>
        <path d="M433.189189,71 C434.405411,71 435.798979,71.0781536 437.369932,71.2344633 C438.940886,71.3907729 440.486479,71.5991826 442.006757,71.8596987 C443.527035,72.1202147 444.920602,72.3807269 446.1875,72.6412429 C447.454398,72.901759 448.391889,73.1362199 449,73.3446328 L446.567568,86.0056497 C445.452697,85.588824 443.603053,85.093851 441.018581,84.5207156 C438.434109,83.9475803 435.114885,83.6610169 431.060811,83.6610169 C428.425663,83.6610169 425.815891,83.9475803 423.231419,84.5207156 C420.646947,85.093851 418.949328,85.4846192 418.138514,85.693032 L418.138514,154 L404,154 L404,76.1581921 C407.344611,74.907715 411.499975,73.7354104 416.466216,72.6412429 C421.432457,71.5470755 427.006726,71 433.189189,71 Z" id="Path" fill="#7C7C80"></path>
        <polygon id="Path" fill="#7C7C80" points="475 154 462 154 462 72 475 72"></polygon>
        <path d="M522.00545,141.823853 C527.907386,141.823853 532.282002,141.053219 535.129428,139.511927 C537.976853,137.970634 539.400545,135.504604 539.400545,132.113761 C539.400545,128.620166 538.002739,125.845882 535.207084,123.790826 C532.41143,121.73577 527.803847,119.423866 521.384196,116.855046 C518.277914,115.622012 515.301104,114.363309 512.453678,113.078899 C509.606253,111.794489 507.147149,110.278908 505.076294,108.53211 C503.005439,106.785312 501.34878,104.678911 500.106267,102.212844 C498.863754,99.7467767 498.242507,96.7156143 498.242507,93.1192661 C498.242507,86.0293223 500.882807,80.4036905 506.163488,76.2422018 C511.444168,72.0807131 518.640281,70 527.752044,70 C530.029984,70 532.307891,70.1284391 534.585831,70.3853211 C536.863772,70.6422031 538.986366,70.9504569 540.953678,71.3100917 C542.920991,71.6697266 544.655306,72.0550438 546.156676,72.466055 C547.658046,72.8770663 548.822884,73.2366957 549.651226,73.5449541 L547.010899,85.8752294 C545.457758,85.0532069 543.02454,84.205509 539.711172,83.3321101 C536.397804,82.4587112 532.411467,82.0220183 527.752044,82.0220183 C523.713876,82.0220183 520.193476,82.8183407 517.190736,84.4110092 C514.187996,86.0036777 512.686649,88.4953959 512.686649,91.8862385 C512.686649,93.6330363 513.023157,95.1743052 513.696185,96.5100917 C514.369213,97.8458782 515.404625,99.0532056 516.802452,100.13211 C518.200279,101.211015 519.934595,102.212839 522.00545,103.137615 C524.076305,104.06239 526.561293,105.038527 529.46049,106.066055 C533.291572,107.504594 536.708432,108.917424 539.711172,110.304587 C542.713911,111.69175 545.276556,113.310082 547.399183,115.159633 C549.521809,117.009184 551.152583,119.244024 552.291553,121.86422 C553.430523,124.484417 554,127.695394 554,131.497248 C554,138.89545 551.230273,144.495394 545.690736,148.297248 C540.151198,152.099102 532.256182,154 522.00545,154 C514.861,154 509.269775,153.40918 505.231608,152.227523 C501.19344,151.045866 498.449599,150.146792 497,149.530275 L499.640327,137.2 C501.297011,137.816517 503.937312,138.741278 507.561308,139.974312 C511.185304,141.207346 515.99997,141.823853 522.00545,141.823853 Z" id="Path" fill="#7C7C80"></path>
        <g id="bumerangues">
            <g id="Group" transform="translate(16.000000, 16.000000)">
                <path d="M30.5665006,133.363364 C41.6830824,152.069574 70.8896496,164.052764 94.5665548,170.784096 C104.604397,173.591112 124.816772,177.237761 126.161894,177.433465 C136.670488,179.315255 131.849175,184.685436 126.388655,184.312907 C125.094755,184.379246 123.908699,184.394585 122.825233,184.378169 C119.037598,184.320782 110.122228,183.781262 107.493702,183.66644 C73.4225599,182.178109 19.5950078,172.327777 5.60011351,148.778144 C-4.81534142,131.251742 0.750447433,98.7525887 10.4600952,70.2008578 C18.794948,45.2878052 30.4267432,25.6305888 30.8982283,24.6711828 C34.1036542,18.0958386 38.5134833,21.1834781 36.5134833,27.4075445 C32.2528822,40.9812969 31.2355742,45.2677547 29.7874668,50.8886594 C24.3538505,71.9795266 16.89618,110.500613 30.5665006,133.363364 Z" id="Combined-Shape" fill="url(#radialGradient-1)"></path>
                <path d="M121.816135,51.0208711 C110.699553,32.3146616 81.4929857,20.3314713 57.8160806,13.6001391 C47.7782389,10.7931234 27.5658633,7.14647425 26.220741,6.95077081 C15.7121479,5.06898086 20.5334607,-0.301200933 25.9939808,0.0713280277 C27.2878803,0.00498902976 28.4739364,-0.0103495266 29.5574022,0.00606622628 C33.3450373,0.0634532534 42.2604072,0.602973219 44.8889338,0.717795287 C78.9600755,2.20612676 132.787628,12.0564586 146.782522,35.6060918 C157.197977,53.1324938 151.632188,85.6316467 141.92254,114.183378 C133.587687,139.09643 121.955892,158.753647 121.484407,159.713053 C118.278981,166.288397 113.869152,163.200757 115.869152,156.976691 C120.129753,143.402938 121.147061,139.116481 122.595169,133.495576 C128.028785,112.404709 135.486455,73.8836225 121.816135,51.0208711 Z" id="Combined-Shape" fill="url(#radialGradient-2)"></path>
            </g>
        </g>
    </g>
</svg>